<svg width="70" height="70" viewBox="0 0 70 70" fill="none" xmlns="http://www.w3.org/2000/svg">
<path d="M70 6.82165V63.1784C69.9635 63.2802 69.9087 63.3753 69.8904 63.4816C69.1872 67.533 66.7727 69.9728 63.4285 69.9977C62.2213 70.0068 61.014 69.9977 59.8049 69.9977C42.1015 69.9977 24.398 70 6.69271 69.9977C2.78966 69.9977 0.00802218 66.6661 0.00436935 61.9471C-0.00293632 43.9786 -0.00293632 26.0146 0.0189807 8.05063C0.0189807 7.13399 0.14683 6.18113 0.378785 5.31202C1.27008 1.97135 3.6499 0 6.69636 0C25.5614 0 44.4283 0 63.2934 0C63.476 0 63.6587 0 63.8395 0.00905329C66.3581 0.169749 68.1973 1.66354 69.3315 4.43611C69.6347 5.17848 69.7808 6.02044 69.9982 6.81712L70 6.82165ZM12.4989 66.562C12.4989 63.1919 12.4989 59.9124 12.4989 56.6328C12.4989 54.0594 12.4843 51.4838 12.5044 48.9104C12.5245 46.3958 13.7975 44.8409 15.8065 44.8341C17.2878 44.8296 18.769 44.8319 20.2484 44.8341C22.4419 44.8364 23.6674 46.3574 23.6693 49.0914C23.6729 54.58 23.6693 60.0663 23.6693 65.5548C23.6693 65.883 23.6693 66.2112 23.6693 66.5575H27.7623C27.7623 66.2067 27.7623 65.9034 27.7623 65.6001C27.7623 62.7144 27.7586 59.8286 27.7659 56.9452C27.7659 56.5242 27.7897 56.0964 27.8444 55.6822C28.0326 54.2496 28.7522 53.2673 29.711 52.4955C28.5403 49.0009 27.3878 45.5607 26.2354 42.1227C25.1815 38.9789 25.5486 36.9125 27.5175 34.5632C29.9722 31.6344 32.2826 28.5586 33.8059 24.7087C34.0451 24.1044 34.4543 23.7807 35.0131 23.7807C35.5994 23.7807 35.9884 24.1315 36.2697 24.754C36.7391 25.786 37.1336 26.9064 37.7382 27.8004C39.3892 30.2425 41.0933 32.6371 42.854 34.9593C44.3023 36.8695 44.7498 39.1374 43.9571 41.5795C43.5498 42.8356 43.1224 44.085 42.706 45.3366C41.9115 47.7335 41.1189 50.1303 40.3152 52.5498C41.8056 53.6498 42.2841 55.2929 42.2494 57.3164C42.2001 60.0867 42.2366 62.8592 42.2366 65.6318V66.5371H46.0666C46.0666 66.1614 46.0666 65.8536 46.0666 65.5435C46.0666 61.4695 46.0301 57.3956 46.0958 53.3239C46.1105 52.4774 46.3369 51.4634 46.7643 50.841C47.283 50.085 47.3944 49.3653 47.3707 48.4758C47.325 46.6901 47.9551 45.3932 49.2336 44.5535C49.4163 44.4335 49.5934 44.0714 49.6026 43.8134C49.6427 42.684 49.6117 41.5523 49.6227 40.4207C49.6336 39.2981 50.1596 38.5783 50.9559 38.5602C51.776 38.5421 52.3367 39.2845 52.3513 40.441C52.3659 41.5433 52.3732 42.6478 52.3458 43.75C52.3349 44.2095 52.4463 44.4471 52.7933 44.6418C53.6718 45.1352 54.2727 45.9952 54.4736 47.1631C54.5996 47.8987 54.5357 48.6818 54.5942 49.44C54.6161 49.7229 54.68 50.0783 54.8334 50.2525C55.6352 51.1624 55.9201 52.2827 55.9147 53.5977C55.8964 57.6151 55.9092 61.6302 55.9092 65.6476C55.9092 65.9487 55.9092 66.2474 55.9092 66.6073C58.4351 66.6073 60.8679 66.6118 63.3025 66.6073C65.7846 66.6028 67.264 64.7763 67.264 61.7117C67.2658 49.0394 67.264 36.3671 67.264 23.6924C67.264 23.3937 67.264 23.0972 67.264 22.8007H2.73669C2.73669 23.1447 2.73669 23.448 2.73669 23.7513C2.73669 36.3671 2.73669 48.9828 2.73669 61.6008C2.73669 61.8837 2.73121 62.1667 2.74765 62.4496C2.86271 64.4956 4.17591 66.424 5.79229 66.5281C7.99129 66.6707 10.1994 66.5643 12.4989 66.5643V66.562ZM2.74582 19.2948H67.2549C67.2549 15.3272 67.2549 11.423 67.2531 7.52102C67.2531 7.38069 67.2293 7.24037 67.2074 7.1023C66.8385 4.76882 65.3993 3.39498 63.2989 3.39498C44.432 3.39498 25.5669 3.39498 6.70002 3.39498C6.51737 3.39498 6.33473 3.39498 6.15392 3.4063C4.36951 3.50815 2.80244 5.3007 2.76409 7.52328C2.69834 11.423 2.74582 15.3272 2.74582 19.2971V19.2948ZM33.6342 51.9478C33.6342 49.2069 33.6287 46.4954 33.6378 43.7862C33.6415 42.6206 34.1931 41.8986 35.0278 41.9167C35.8314 41.9326 36.3574 42.641 36.3647 43.7681C36.3756 45.8028 36.3683 47.8398 36.3683 49.8746C36.3683 50.5739 36.3683 51.2755 36.3683 52.0949C36.8797 51.8957 37.4204 52.4095 37.7108 51.52C38.9399 47.7538 40.2002 44.0012 41.4421 40.2419C41.8019 39.1532 41.6193 38.2026 40.9326 37.3901C40.3554 36.7065 39.7582 36.0457 39.2322 35.3056C37.7911 33.2776 36.3848 31.2135 34.9474 29.1403C34.9401 29.1516 34.8579 29.2421 34.7976 29.353C33.205 32.2704 31.2836 34.8303 29.2234 37.2407C28.3193 38.2977 28.1805 39.0876 28.6536 40.5021C29.8316 44.0216 31.0425 47.523 32.1731 51.0651C32.4653 51.9794 32.8507 52.2443 33.636 51.9523L33.6342 51.9478ZM39.5061 66.5779V65.745C39.5061 62.8343 39.5061 59.926 39.5061 57.0153C39.5061 55.7501 39.2723 55.4469 38.2715 55.4446C36.0871 55.4378 33.9027 55.4378 31.7183 55.4446C30.7448 55.4469 30.4982 55.7547 30.4964 56.9452C30.4928 59.9124 30.4946 62.8773 30.4964 65.8446C30.4964 66.0867 30.522 66.3266 30.5366 66.5801H39.5043L39.5061 66.5779ZM20.9351 66.5665C20.9351 65.5684 20.9351 64.6676 20.9351 63.7646C20.9351 58.9029 20.9351 54.0391 20.9351 49.1775C20.9351 48.6773 20.9698 48.2065 20.3671 48.2155C18.842 48.2404 17.3152 48.2042 15.7919 48.2495C15.6038 48.254 15.2897 48.5731 15.2641 48.7859C15.1929 49.4128 15.2385 50.0601 15.2385 50.755C15.8851 50.755 16.4293 50.7459 16.9736 50.755C17.9215 50.7731 18.5352 51.4272 18.5462 52.4163C18.5589 53.437 17.9252 54.1251 16.9444 54.1432C16.4019 54.1522 15.8595 54.1432 15.2915 54.1432V56.2368C15.9417 56.2368 16.5316 56.2119 17.1216 56.2435C17.9599 56.2865 18.5389 56.9927 18.5462 57.9297C18.5535 58.8962 17.9489 59.6 17.0722 59.6249C16.4878 59.6408 15.9015 59.6272 15.2897 59.6272V61.7593C15.8905 61.7593 16.433 61.7479 16.9773 61.7615C17.9343 61.7864 18.5389 62.436 18.548 63.4273C18.5589 64.4481 17.9325 65.1248 16.9426 65.1474C16.4019 65.1588 15.8595 65.1474 15.2842 65.1474V66.5575H20.9351V66.5665ZM53.175 66.562C53.175 62.1033 53.1714 57.7509 53.1805 53.3985C53.1805 52.878 52.9632 52.801 52.618 52.8033C51.5696 52.8169 50.5213 52.8463 49.4747 52.792C48.9104 52.7626 48.788 53.0228 48.7916 53.6724C48.8117 57.7441 48.8008 61.8181 48.8044 65.8898C48.8044 66.1071 48.8318 66.3244 48.8483 66.562H53.175ZM51.9239 49.3721C51.8271 48.7836 51.8728 47.9937 51.6244 47.8059C51.2902 47.5524 50.6254 47.5705 50.2984 47.8398C50.0592 48.0367 50.1359 48.8244 50.0683 49.3721H51.9239Z" fill="#FD6F00"/>
<path d="M24.43 6.76954C27.1065 6.76501 29.2803 9.05097 29.2867 11.8779C29.2932 14.6866 27.1044 17.0065 24.4428 17.0111C21.7834 17.0156 19.5903 14.7025 19.5861 11.8914C19.5818 9.06907 21.7534 6.77406 24.43 6.76954ZM24.4535 10.169C23.5571 10.16 22.8168 10.9092 22.7954 11.8462C22.7718 12.8013 23.5485 13.6251 24.4599 13.6116C25.3393 13.598 26.0796 12.8058 26.0796 11.8801C26.0796 10.9454 25.3457 10.1758 24.4535 10.1668V10.169Z" fill="black"/>
<path d="M16.2078 11.9097C16.1971 14.7501 14.0425 17.018 11.3596 17.0089C8.68941 16.9999 6.54987 14.7026 6.55629 11.8576C6.56485 9.01714 8.72364 6.75381 11.4088 6.76739C14.0982 6.78097 16.2185 9.05109 16.2078 11.9097ZM9.76132 11.8644C9.75276 12.8286 10.4631 13.6004 11.3638 13.6117C12.2753 13.623 12.9899 12.8761 13.0006 11.9051C13.0113 10.9274 12.3223 10.1805 11.4023 10.1714C10.4823 10.1624 9.76988 10.8957 9.76346 11.8667L9.76132 11.8644Z" fill="black"/>
<path d="M37.4727 6.76736C40.1621 6.75831 42.3059 9.0171 42.3102 11.8666C42.3166 14.7139 40.177 16.9998 37.5005 17.0066C34.8261 17.0134 32.663 14.732 32.6587 11.8983C32.6544 9.04879 34.7854 6.77415 37.4727 6.76736ZM39.103 11.9028C39.1115 10.9251 38.4226 10.1782 37.5026 10.1691C36.5826 10.1601 35.8723 10.8957 35.8637 11.8644C35.8573 12.8285 36.5655 13.6003 37.4684 13.6094C38.3798 13.6184 39.0944 12.8715 39.103 11.9006V11.9028Z" fill="black"/>
<path d="M40.9623 39.7167C40.1107 39.6918 39.3983 38.9042 39.4068 37.9966C39.4154 37.0415 40.1642 36.2991 41.0799 36.3421C41.9507 36.3828 42.6311 37.1592 42.5969 38.0781C42.5648 38.9789 41.8052 39.7394 40.9623 39.7145V39.7167Z" fill="#FD6F00"/>
</svg>
