<svg width="47" height="70" viewBox="0 0 47 70" fill="none" xmlns="http://www.w3.org/2000/svg">
<path d="M0 34.981C0 25.2127 0 15.4445 0 5.67619C0 2.14754 2.53409 0 6.69982 0C17.9007 0 29.1016 0 40.3024 0C44.4704 0 46.9977 2.14375 47 5.67809C47 25.2393 47 44.8005 47 64.3599C47 67.843 44.4547 70 40.3429 70C29.1151 70 17.8849 70 6.65706 70C2.5521 70 0.00225053 67.8373 0.00225053 64.3561C0.00225053 54.5631 0.00225053 44.7721 0.00225053 34.9791L0 34.981ZM45.0871 56.4508V9.95989H44.0248C34.7031 9.95989 25.3837 9.95989 16.062 9.95989C15.7807 9.95989 15.4274 10.0415 15.2361 9.93143C14.8827 9.72654 14.4551 9.44008 14.3674 9.12516C14.2391 8.65657 14.6667 8.33975 15.2428 8.26766C15.5174 8.23351 15.8032 8.25438 16.0845 8.25438C25.4332 8.25438 34.7819 8.25438 44.1328 8.25438H45.1501C45.1501 7.32668 45.1501 6.49954 45.1501 5.67239C45.1501 3.13404 43.4644 1.70931 40.4622 1.70931C29.2051 1.70931 17.9457 1.70931 6.68857 1.70931C6.49277 1.70931 6.29472 1.70551 6.09893 1.7131C4.19498 1.77381 2.46883 2.84758 2.18976 4.42788C1.97146 5.6667 2.147 6.95295 2.147 8.25438C4.08246 8.25438 6.01566 8.26197 7.95111 8.25058C8.65553 8.24679 9.18665 8.42322 9.25417 9.08342C9.31043 9.63358 8.80406 9.9523 7.92411 9.95989C7.05315 9.96558 6.18445 9.95989 5.31349 9.95989C4.23099 9.95989 3.14849 9.95989 2.06823 9.95989V56.4527H45.0938L45.0871 56.4508ZM2.02097 58.2435C2.02097 60.2829 2.02097 62.273 2.02097 64.2612C2.02097 66.8925 3.67961 68.2945 6.79434 68.2945C17.993 68.2945 29.1916 68.2945 40.3902 68.2945C40.6715 68.2945 40.9528 68.3002 41.2319 68.285C43.2664 68.1655 45.042 66.7939 45.1118 65.1035C45.2041 62.8346 45.1343 60.5599 45.1343 58.2435H2.02097Z" fill="#FD6F00"/>
<path d="M23.6103 12.8056C28.6627 12.8056 33.7151 12.8056 38.7676 12.8056C39.9693 12.8056 40.2597 13.0484 40.2597 14.0558C40.2597 21.8568 40.2597 29.6558 40.2597 37.4568C40.2597 38.4566 39.9649 38.6994 38.7586 38.6994C28.6537 38.6994 18.5466 38.6994 8.44172 38.6994C7.18593 38.6994 6.90686 38.4661 6.90686 37.4132C6.90686 29.6369 6.90686 21.8605 6.90686 14.0842C6.90686 13.0351 7.18368 12.8056 8.45072 12.8056C13.5032 12.8056 18.5556 12.8056 23.608 12.8056H23.6103ZM22.0912 25.7534C17.6891 22.3633 13.3861 19.0471 8.99985 15.6702V35.8404C13.4041 32.4465 17.7116 29.1284 22.0912 25.7534ZM38.2139 15.6418C33.7827 19.0547 29.4594 22.3842 25.0844 25.7534C29.4774 29.136 33.7917 32.4598 38.2139 35.8651V15.6399V15.6418ZM10.5662 14.5452C15.0043 17.962 19.287 21.2592 23.5923 24.5753C27.947 21.2193 32.2185 17.9278 36.6048 14.5452H10.5662ZM23.5878 26.9297C19.224 30.2933 14.9547 33.5829 10.5797 36.9559H36.6026C32.2028 33.5658 27.9268 30.2724 23.5878 26.9297Z" fill="black"/>
<path d="M23.5 48.0921C18.5871 48.0921 13.6742 48.0921 8.76129 48.0921C8.48223 48.0921 8.12214 48.1642 7.93985 48.0465C7.61577 47.8397 7.19717 47.5153 7.19717 47.2384C7.19717 46.9633 7.61802 46.637 7.93985 46.4302C8.12439 46.3126 8.48222 46.3866 8.76354 46.3866C18.6456 46.3866 28.5277 46.3866 38.4097 46.3866C38.6348 46.3866 38.8621 46.3733 39.0826 46.396C39.6678 46.4548 40.0189 46.7508 40.0189 47.2403C40.0189 47.7278 39.6655 48.0257 39.0826 48.0845C38.8328 48.1091 38.5785 48.094 38.3242 48.094C33.3821 48.094 28.4421 48.094 23.5 48.094V48.0921Z" fill="#FD6F00"/>
<path d="M23.5315 52.3605C18.6186 52.3605 13.7057 52.3605 8.7928 52.3605C8.51149 52.3605 8.15816 52.4364 7.96911 52.3226C7.63828 52.1234 7.17693 51.7895 7.19943 51.5391C7.22419 51.2355 7.65854 50.9206 7.99162 50.6892C8.14465 50.5829 8.47998 50.6569 8.73204 50.6569C18.6434 50.6569 28.5524 50.6569 38.4637 50.6569C38.6888 50.6569 38.9814 50.5886 39.1232 50.6816C39.4652 50.9073 39.9108 51.1786 39.9919 51.4897C40.1111 51.9488 39.697 52.279 39.1142 52.3491C38.8666 52.3795 38.61 52.3624 38.358 52.3624C33.4158 52.3624 28.4759 52.3624 23.5338 52.3624L23.5315 52.3605Z" fill="#FD6F00"/>
<path d="M15.8347 43.6813C13.3951 43.6813 10.9578 43.6832 8.51825 43.6813C7.62929 43.6813 7.14542 43.3797 7.13867 42.839C7.12967 42.2945 7.61578 41.9777 8.49349 41.9777C13.3996 41.9739 18.3058 41.9758 23.2119 41.9777C24.1301 41.9777 24.578 42.2604 24.587 42.8181C24.596 43.3683 24.1211 43.6794 23.2367 43.6813C20.7701 43.6851 18.3035 43.6813 15.8347 43.6813Z" fill="#FD6F00"/>
<path d="M23.5878 65.9894C21.5353 66.0046 19.7619 64.5192 19.7551 62.7795C19.7506 61.0209 21.443 59.5639 23.5337 59.5259C25.6245 59.4899 27.4159 60.9886 27.4046 62.7681C27.3956 64.5211 25.6717 65.9743 23.5855 65.9875L23.5878 65.9894ZM25.3882 62.7662C25.3972 61.9618 24.5937 61.2618 23.6373 61.2371C22.6515 61.2125 21.7918 61.9125 21.7828 62.7491C21.7738 63.5478 22.5795 64.2536 23.5337 64.282C24.5037 64.3105 25.3814 63.5953 25.3904 62.7662H25.3882Z" fill="black"/>
</svg>
