<svg width="70" height="70" viewBox="0 0 70 70" fill="none" xmlns="http://www.w3.org/2000/svg">
<path d="M46.9775 70H23.0221C22.0432 69.4859 21.7253 68.9646 21.9476 68.2482C22.1534 67.5919 22.7768 67.2693 23.8554 67.2674C24.8821 67.2674 25.9087 67.2674 26.9686 67.2674C27.5027 64.7154 28.0222 62.2435 28.5605 59.6695C28.1365 59.6695 27.8331 59.6695 27.5297 59.6695C21.3886 59.6695 15.2475 59.6732 9.10644 59.6641C8.38323 59.6641 7.64546 59.6477 6.94303 59.5201C2.75338 58.7672 0.0101592 55.7667 0.00600278 51.9404C-0.00438822 42.4667 -0.00023182 32.993 0.00392458 23.5193C0.00392458 18.8016 3.65948 15.5932 9.02955 15.5859C9.74652 15.5859 10.4614 15.5859 11.2304 15.5859C11.2304 15.2268 11.2304 14.957 11.2304 14.6872C11.2304 11.2255 11.22 7.7638 11.2345 4.30208C11.2428 2.22214 12.5334 0.71276 14.7425 0.134896C14.861 0.103906 14.9711 0.0455729 15.0854 0C28.361 0 41.6344 0 54.91 0C58.0231 1.11198 58.7671 2.1 58.7671 5.1224C58.7671 8.35625 58.7671 11.5901 58.7671 14.824C58.7671 15.0628 58.7671 15.3034 58.7671 15.5859C59.6296 15.5859 60.3756 15.5841 61.1238 15.5859C66.2985 15.606 69.9873 18.838 69.9915 23.3826C69.9998 32.8781 69.9977 42.3755 69.9852 51.8711C69.9852 52.5255 69.9229 53.1964 69.7525 53.8326C68.8048 57.3872 65.4527 59.6531 61.1259 59.6622C54.9079 59.6768 48.6878 59.6659 42.4699 59.6659C42.1664 59.6659 41.863 59.6659 41.437 59.6659C41.9815 62.2581 42.5052 64.7482 43.0331 67.2638C44.253 67.2638 45.3918 67.2438 46.5286 67.2693C47.5427 67.2911 48.1704 67.9383 48.0872 68.7859C48.027 69.4185 47.5261 69.7211 46.9754 69.9945L46.9775 70ZM14.3892 9.82552V49.7693H55.5978V9.82552H14.3892ZM66.818 52.6331H3.12538C3.22306 53.0013 3.27709 53.2911 3.37684 53.5719C4.12084 55.6755 6.16371 56.9315 8.88407 56.9333C26.2994 56.937 43.7147 56.9352 61.13 56.9333C61.3628 56.9333 61.5955 56.926 61.8283 56.9096C64.4801 56.7383 66.498 55.0302 66.818 52.6331ZM11.1701 49.7893V25.4807H3.15655V49.7893H11.1701ZM66.8326 49.7839V25.4753H58.8107V49.7839H66.8326ZM14.3643 6.98177H55.5978C55.6269 6.87057 55.6477 6.825 55.6477 6.78125C55.6519 6.05208 55.6581 5.32474 55.656 4.59557C55.654 3.17188 55.1469 2.73438 53.503 2.73438C41.171 2.73438 28.8389 2.73438 16.5069 2.73438C16.2991 2.73438 16.0913 2.72708 15.8855 2.73984C15.0563 2.79271 14.4308 3.24479 14.3809 3.97214C14.3144 4.9638 14.3643 5.96276 14.3643 6.98177ZM39.8596 67.2365C39.3484 64.7974 38.8579 62.4276 38.3363 60.0633C38.3031 59.9102 38.0204 59.6896 37.8521 59.6878C35.8342 59.6622 33.8162 59.6714 31.7339 59.6714C31.1998 62.207 30.674 64.7008 30.1378 67.2383H39.8617L39.8596 67.2365ZM11.1722 22.6734V18.3677C6.38608 17.974 3.20435 19.7039 3.22513 22.6734H11.1722ZM58.8024 22.668H66.7993C66.6788 20.6883 64.9996 18.869 62.7593 18.4935C61.4833 18.2802 60.1512 18.3294 58.8045 18.2583V22.668H58.8024Z" fill="#FD6F00"/>
<path d="M16.3035 32.8672C16.3035 29.2924 16.3014 25.7177 16.3035 22.143C16.3056 19.8589 17.7478 18.5883 20.3331 18.5846C22.5609 18.581 24.7888 18.5773 27.0166 18.5846C29.3109 18.5937 30.853 19.8789 30.8592 21.8987C30.8841 29.2305 30.8841 36.5622 30.8592 43.894C30.853 45.9156 29.3276 47.1971 27.0228 47.2099C24.7181 47.2227 22.4113 47.2263 20.1066 47.2099C17.8081 47.1935 16.3139 45.8828 16.3076 43.8648C16.2931 40.199 16.3035 36.5331 16.3035 32.8672ZM27.7627 32.9529C27.7627 29.3799 27.7564 25.8052 27.7689 22.2323C27.771 21.6417 27.6422 21.2935 26.8296 21.3062C24.6558 21.3409 22.4778 21.3336 20.304 21.3099C19.6182 21.3026 19.4042 21.5451 19.4062 22.1229C19.4187 29.3161 19.4208 36.5094 19.4062 43.7008C19.4062 44.3078 19.6826 44.4937 20.3331 44.4883C22.43 44.4682 24.529 44.4828 26.6259 44.481C27.6962 44.481 27.7606 44.4227 27.7627 43.4711C27.7648 39.9656 27.7627 36.4602 27.7627 32.9547V32.9529Z" fill="black"/>
<path d="M43.5445 18.5846C45.6165 18.5846 47.6905 18.5773 49.7625 18.5865C52.007 18.5974 53.5324 19.8917 53.5615 21.8659C53.5968 24.1646 53.5947 26.4651 53.5615 28.7656C53.5344 30.7125 52.0735 32.0341 49.8477 32.0542C45.6248 32.0943 41.4019 32.0961 37.179 32.0542C34.8951 32.0323 33.4507 30.656 33.4445 28.6362C33.4382 26.4268 33.4382 24.2193 33.4445 22.0099C33.4507 19.9245 34.9574 18.5937 37.3245 18.5846C39.3965 18.5773 41.4705 18.5846 43.5425 18.5846H43.5445ZM36.5555 25.0469C37.2393 24.5565 37.7796 24.1427 38.3511 23.7635C39.7497 22.832 41.4996 22.8466 42.8754 23.7964C43.3637 24.1336 43.8667 24.4654 44.2968 24.8555C44.86 25.3659 45.3193 25.3021 45.8721 24.8409C47.0858 23.8237 48.4886 23.6359 50.0306 24.2065C50.1428 24.2484 50.2634 24.2703 50.4587 24.3232C50.4587 23.4792 50.4629 22.6844 50.4587 21.8914C50.4545 21.4521 50.1615 21.3135 49.6981 21.3154C45.5812 21.3208 41.4643 21.3208 37.3473 21.3154C36.7862 21.3154 36.5493 21.5286 36.5576 22.0154C36.5722 22.9706 36.5618 23.9258 36.5618 25.0469H36.5555ZM43.476 29.3344C45.4939 29.3344 47.5139 29.3508 49.5318 29.318C49.8311 29.3125 50.3631 29.0974 50.3777 28.9479C50.4275 28.4302 50.7829 27.8214 50.0742 27.3984C49.0365 26.7799 48.1942 26.7009 47.5471 27.1615C45.9594 28.2971 44.1722 28.2971 42.5948 27.1596C42.1542 26.8424 41.7032 26.5344 41.298 26.1844C40.82 25.7724 40.4168 25.7542 39.9015 26.1607C38.9974 26.8734 38.0269 27.5224 37.1167 28.2315C36.8798 28.4156 36.7613 28.7201 36.5888 28.968C36.9172 29.0901 37.2434 29.3143 37.5759 29.3198C39.5419 29.3526 41.51 29.3362 43.476 29.3362V29.3344Z" fill="black"/>
<path d="M43.503 47.2135C41.4559 47.2135 39.4089 47.2208 37.364 47.2117C34.9346 47.2008 33.4507 45.8865 33.4445 43.7536C33.4403 41.5461 33.4362 39.3367 33.4445 37.1292C33.4528 35.1203 34.947 33.7641 37.2185 33.7549C41.4144 33.7349 45.6123 33.7349 49.8082 33.7549C52.0236 33.7659 53.5261 35.0638 53.5573 37.0052C53.5947 39.3276 53.5947 41.65 53.5573 43.9724C53.524 45.912 52.0153 47.1935 49.7958 47.2117C47.6968 47.2299 45.5999 47.2154 43.5009 47.2172L43.503 47.2135ZM48.3743 44.481C48.7941 44.481 49.1037 44.481 49.4134 44.481C50.3818 44.4737 50.4587 44.4099 50.4587 43.5312C50.4629 41.4586 50.4442 39.3841 50.4691 37.3115C50.4774 36.6971 50.2239 36.4674 49.5131 36.4711C45.5209 36.4911 41.5287 36.4911 37.5385 36.4711C36.7987 36.4674 36.5285 36.6935 36.541 37.3479C36.5743 39.2383 36.5535 41.1286 36.5535 43.0208C36.5535 44.5667 36.5763 44.5849 38.3386 44.4719C38.4114 44.4664 38.482 44.4354 38.6317 44.3953C38.6919 42.9552 38.4114 41.4331 39.7227 40.2208C41.0507 38.9922 42.7403 39.076 44.4298 39.1143C45.4232 39.1362 46.2919 39.4443 47.0484 40.0203C48.607 41.2107 48.3764 42.8331 48.3743 44.481ZM45.2591 44.4555C45.2591 43.8083 45.2798 43.2214 45.2528 42.6362C45.2279 42.1185 44.8538 41.7977 44.2948 41.8615C43.4489 41.9599 42.2748 41.3638 41.8529 42.443C41.6201 43.0391 41.8113 43.7646 41.8113 44.4555H45.2611H45.2591Z" fill="black"/>
<path d="M38.0331 16.0727C33.4985 16.0727 28.9639 16.0763 24.4293 16.0708C23.2384 16.0708 22.5713 15.5932 22.536 14.762C22.5069 14.0492 23.0285 13.4805 23.8328 13.3784C24.1383 13.3401 24.4521 13.3419 24.7638 13.3419C33.6274 13.3419 42.4888 13.3419 51.3523 13.3419C51.662 13.3419 51.9779 13.3419 52.2813 13.382C53.0232 13.4823 53.5282 13.9964 53.5552 14.6471C53.5843 15.3362 53.1022 15.8958 52.3332 16.0198C52.0049 16.0727 51.6641 16.0708 51.3274 16.0708C46.8967 16.0745 42.4639 16.0727 38.0331 16.0708V16.0727Z" fill="#FD6F00"/>
<path d="M16.3118 14.7036C16.3118 13.9453 16.9685 13.362 17.8289 13.3547C18.681 13.3474 19.3792 13.9326 19.4042 14.669C19.4291 15.4237 18.6997 16.0672 17.8289 16.0581C16.9789 16.049 16.3118 15.4547 16.3118 14.7018V14.7036Z" fill="#FD6F00"/>
<path d="M51.583 3.54375C51.9446 3.54375 52.3104 3.52005 52.6699 3.54922C53.4409 3.60937 54.0124 4.13255 54.0727 4.79609C54.1288 5.42318 53.682 6.0849 52.9505 6.16328C52.0111 6.26172 51.0385 6.26719 50.0992 6.16875C49.324 6.08672 48.9084 5.43958 48.979 4.74505C49.0455 4.08151 49.615 3.59479 50.4171 3.54557C50.8037 3.52188 51.1944 3.54193 51.583 3.54193V3.54557V3.54375Z" fill="#FD6F00"/>
<path d="M23.5377 29.9378C22.9433 29.9378 22.349 29.9596 21.7567 29.9323C20.8818 29.8904 20.2354 29.2924 20.2396 28.5688C20.2438 27.8451 20.8901 27.2398 21.7692 27.218C22.9807 27.1888 24.1965 27.187 25.4081 27.218C26.2996 27.2417 26.9169 27.8341 26.9127 28.5779C26.9085 29.3198 26.2872 29.8922 25.3956 29.9305C24.7784 29.9578 24.157 29.9359 23.5377 29.9359V29.9378Z" fill="black"/>
<path d="M23.6395 36.369C24.1819 36.369 24.7244 36.3581 25.2668 36.3708C26.2643 36.3964 26.9231 36.956 26.9127 37.7508C26.9023 38.5164 26.256 39.0779 25.3042 39.0943C24.1425 39.1143 22.9807 39.1161 21.819 39.0943C20.8963 39.0742 20.2251 38.4654 20.2375 37.718C20.25 36.9687 20.9233 36.4091 21.8585 36.3708C21.9105 36.369 21.9624 36.3708 22.0144 36.3708C22.5568 36.3708 23.0992 36.3708 23.6416 36.3708L23.6395 36.369Z" fill="black"/>
<path d="M23.6312 22.6443C24.2277 22.6443 24.8241 22.6206 25.4185 22.6497C26.2955 22.6935 26.8898 23.2331 26.9127 23.9531C26.9356 24.6768 26.3828 25.2857 25.5099 25.3258C24.2443 25.3823 22.9704 25.3823 21.7047 25.3331C20.7986 25.2984 20.198 24.6622 20.2396 23.9349C20.2791 23.2221 20.888 22.7062 21.765 22.6443C21.817 22.6406 21.8689 22.6388 21.9209 22.6388C22.4903 22.6388 23.0618 22.6388 23.6312 22.6388V22.6443Z" fill="black"/>
<path d="M23.5377 34.5115C22.9413 34.5115 22.3427 34.5443 21.7505 34.5042C20.8319 34.4404 20.223 33.8661 20.2375 33.1352C20.25 32.4005 20.8818 31.8318 21.7962 31.8099C22.987 31.7807 24.1819 31.7807 25.3728 31.8099C26.2913 31.8318 26.9065 32.3969 26.9148 33.1424C26.9231 33.8661 26.3599 34.4003 25.4808 34.5042C25.4039 34.5133 25.327 34.5242 25.2481 34.5242C24.6786 34.5242 24.1071 34.5242 23.5377 34.5242C23.5377 34.5206 23.5377 34.5151 23.5377 34.5115Z" fill="black"/>
<path d="M23.6104 40.9628C24.2069 40.9628 24.8033 40.9409 25.3977 40.9682C26.2789 41.0102 26.8795 41.537 26.9106 42.2552C26.946 43.0044 26.3703 43.6151 25.4517 43.6534C24.211 43.7044 22.9641 43.7044 21.7234 43.6552C20.8111 43.6188 20.2084 43.0008 20.2375 42.2716C20.2666 41.537 20.8963 41.001 21.8211 40.9664C22.4155 40.9427 23.014 40.9628 23.6084 40.9646L23.6104 40.9628Z" fill="black"/>
</svg>
